<svg xmlns="http://www.w3.org/2000/svg" xmlns:xlink="http://www.w3.org/1999/xlink" id="Capa_2" data-name="Capa 2" viewBox="0 0 291.16 93.55"><defs><style>      .cls-1 {        fill: #151e77;      }      .cls-2 {        fill: url(#Nueva_muestra_de_degradado_1);      }      .cls-3 {        fill: #ff0074;      }    </style><linearGradient id="Nueva_muestra_de_degradado_1" data-name="Nueva muestra de degradado 1" x1="0" y1="30.87" x2="72.19" y2="30.87" gradientUnits="userSpaceOnUse"><stop offset="0" stop-color="#00bdff"></stop><stop offset=".04" stop-color="#00bdff"></stop><stop offset=".28" stop-color="#1232cc"></stop><stop offset=".77" stop-color="#ff008c"></stop><stop offset="1" stop-color="#ff9700"></stop></linearGradient></defs><g id="Capa_1-2" data-name="Capa 1"><g><g><path class="cls-3" d="M162.11,78.12l-3.47.15c.09,1.45.44,2.54,1.05,3.29.46.51,1.03.87,1.71,1.08.69.21,1.52.32,2.49.31,2.04,0,4.4-.17,7.07-.51l.35,3.13c-3.01.48-5.85.72-8.51.72-1.26,0-2.38-.16-3.37-.49s-1.79-.79-2.43-1.38c-.63-.6-1.14-1.32-1.52-2.18-.69-1.56-1.03-3.59-1.03-6.07,0-1.85.15-3.4.45-4.63s.79-2.27,1.47-3.09c.69-.83,1.58-1.44,2.7-1.82,1.11-.38,2.49-.57,4.15-.57,2.93,0,5.05.65,6.36,1.94.86.84,1.45,1.91,1.77,3.21.32,1.22.47,2.71.47,4.47,0,.52-.02,1-.05,1.46-1.1.2-2.64.4-4.64.6-2.04.21-3.72.34-5.04.39ZM158.53,75.41l3.96-.19c1.92-.09,3.61-.24,5.09-.44.03-.21.04-.51.04-.92,0-1.56-.34-2.73-1.01-3.49-.66-.77-1.79-1.15-3.38-1.15-1.7,0-2.9.44-3.6,1.32-.45.55-.75,1.25-.91,2.09-.14.75-.21,1.67-.21,2.78Z"></path><path class="cls-3" d="M193.12,73.39v12.64h-4.21v-12.18c0-.57-.02-1.04-.07-1.43-.1-.93-.34-1.59-.72-1.99-.34-.36-.81-.63-1.4-.8-.6-.17-1.4-.25-2.4-.25-.69,0-1.35.06-1.99.18-.65.11-1.19.27-1.61.49-.08.77-.12,1.65-.12,2.64v13.34h-4.19v-14.63c0-1.22.05-2.42.17-3.62,2.35-1.15,5.31-1.73,8.89-1.73,2.84.03,4.81.56,5.92,1.6.38.36.68.73.9,1.12.22.38.39.84.51,1.38.14.55.22,1.06.25,1.53.04.54.06,1.11.06,1.7Z"></path><path class="cls-3" d="M205.27,78.12l-3.47.15c.09,1.45.44,2.54,1.05,3.29.46.51,1.03.87,1.71,1.08.69.21,1.52.32,2.49.31,2.04,0,4.4-.17,7.07-.51l.35,3.13c-3.01.48-5.85.72-8.51.72-1.26,0-2.38-.16-3.37-.49s-1.79-.79-2.43-1.38c-.63-.6-1.14-1.32-1.52-2.18-.69-1.56-1.03-3.59-1.03-6.07,0-1.85.15-3.4.45-4.63s.79-2.27,1.47-3.09c.69-.83,1.58-1.44,2.7-1.82,1.11-.38,2.49-.57,4.15-.57,2.93,0,5.05.65,6.36,1.94.86.84,1.45,1.91,1.77,3.21.32,1.22.47,2.71.47,4.47,0,.52-.02,1-.05,1.46-1.1.2-2.64.4-4.64.6-2.04.21-3.72.34-5.04.39ZM201.69,75.41l3.96-.19c1.92-.09,3.61-.24,5.09-.44.03-.21.04-.51.04-.92,0-1.56-.34-2.73-1.01-3.49-.66-.77-1.79-1.15-3.38-1.15-1.7,0-2.9.44-3.6,1.32-.45.55-.75,1.25-.91,2.09-.14.75-.21,1.67-.21,2.78Z"></path><path class="cls-3" d="M223.74,72.71v13.32h-4.19v-14.63c0-1.22.05-2.42.17-3.62,1.05-.6,2.26-1.03,3.61-1.31,1.38-.28,2.76-.42,4.14-.42.71,0,1.33.03,1.84.08l-.33,3.34c-.38-.05-.88-.08-1.5-.08-.69,0-1.35.06-1.99.18-.65.11-1.18.27-1.6.49-.08.77-.12,1.65-.12,2.64Z"></path><path class="cls-3" d="M244.76,86.15v-.84c-1.45.36-2.88.54-4.3.54-1.54,0-2.83-.17-3.87-.5-1.04-.33-1.92-.88-2.64-1.64s-1.25-1.77-1.59-3.04c-.34-1.26-.51-2.84-.51-4.72,0-2.94.46-5.19,1.39-6.75.46-.77,1.07-1.38,1.81-1.85.74-.46,1.6-.79,2.55-1,.96-.21,2.1-.31,3.43-.31s2.76.14,4.14.42c1.35.27,2.55.71,3.61,1.31.11,1.19.17,2.4.17,3.62v15.94c0,1.9-.51,3.36-1.53,4.36-.48.47-1.06.84-1.74,1.11-1.21.49-2.76.74-4.65.74-2.32,0-4.96-.26-7.95-.77l.34-3.08c2.6.37,4.98.55,7.12.55,1.46,0,2.52-.33,3.19-1,.67-.66,1-1.7,1-3.11ZM244.76,82.05v-9.45c0-1-.04-1.88-.12-2.64-.42-.21-.96-.38-1.61-.49-.64-.12-1.3-.18-1.99-.18-.98.02-1.78.16-2.41.4-.62.25-1.12.62-1.48,1.12-.45.64-.75,1.41-.9,2.29-.07.46-.12.92-.14,1.37-.02.41-.03.9-.03,1.48,0,1.65.1,2.86.29,3.63.31,1.19.97,2.02,1.98,2.48.78.35,1.8.53,3.09.53,1.12,0,2.23-.18,3.32-.55Z"></path><path class="cls-3" d="M258.42,66.33v19.71h-4.23v-19.71h4.23ZM262.79,57.73l-4.79,5.83h-3.25l3.45-5.83h4.59Z"></path><path class="cls-3" d="M270.21,86.3c-2.6,0-4.5-.51-5.68-1.52-1.17-1.01-1.75-2.55-1.75-4.62,0-1.8.43-3.21,1.28-4.23s2.19-1.67,4.02-1.95c1.43-.21,3.76-.39,6.98-.52,0-1.41-.33-2.45-1-3.11-.67-.66-1.73-1-3.19-1-1.95,0-4.23.17-6.85.5l-.34-3.08c2.9-.48,5.43-.72,7.59-.72,1.89,0,3.44.25,4.65.74.68.27,1.26.63,1.74,1.11,1.02,1,1.53,2.46,1.53,4.36v8.69c0,1.22-.05,2.42-.17,3.62-2.05,1.15-4.99,1.73-8.81,1.73ZM275.07,79.83v-3.63s-.06,0-.13,0-.15,0-.27.01c-.12,0-.23,0-.34,0l-.82.03-.75.04c-.31,0-.59.03-.83.06-.06,0-.31.03-.74.08-.46.04-.95.13-1.47.24-1.05.24-1.79.59-2.19,1.05-.39.46-.59,1.24-.59,2.36,0,1.21.34,2.03,1.01,2.47.63.4,1.59.6,2.89.6,1.79,0,3.16-.23,4.12-.68.08-.77.12-1.65.12-2.64Z"></path></g><path class="cls-2" d="M39.18,41.73h0,0M39.18,41.73h0s0,0,0,0h0M19.85,2.01C3.99,8.04-4.02,25.85,2.01,41.71c6.03,15.87,23.84,23.87,39.7,17.84.03-.01.07-.03.1-.04,4.73-1.76,9.83-.74,13.49,2.23l16.89-6.41c-7.73-11.55-22.63-16.75-36.19-11.77h0s0-.01,0-.01c-.07.03-.14.06-.21.09-.04.01-.07.02-.11.04h0s0,0,0,0c-7.11,2.7-15.1-.89-17.8-8-2.7-7.11.89-15.1,8-17.8,7.11-2.7,15.1.89,17.8,8,2.21,5.82.2,12.23-4.5,15.84,7.36-2.19,14.44-2.58,20.44-.23,2.51-6.75,2.69-14.4-.07-21.64C54.89,7.57,43.17,0,30.75,0c-3.63,0-7.31.64-10.9,2.01"></path><path class="cls-1" d="M122.87,9.17c0,3.15-2.36,5.5-5.56,5.5s-5.56-2.36-5.56-5.5,2.41-5.56,5.56-5.56,5.56,2.36,5.56,5.56ZM111.75,52.9h11.12V17.9h-11.12v35ZM161.25,39.52v-9.33c0-7.89-5.28-13.11-13.18-13.11-4.05,0-7.48,1.44-10.09,4.32v-3.5h-11.12v35h11.12v-18.87c0-3.71,2.54-6.18,6.38-6.18,3.5,0,5.76,2.4,5.76,6.04v8.1c0,7.28,3.84,10.91,11.39,10.91h3.09v-10.78h-.76c-1.72,0-2.61-.89-2.61-2.61ZM228.23,35.61c0,.89-.07,2.27-.21,3.16h-25.74c1.03,3.36,3.78,5.42,7.34,5.42,2.88,0,5.29-1.23,6.38-2.68h11.8c-2.54,7.27-9.68,12.22-18.46,12.22-10.84,0-18.94-7.89-18.94-18.33s8.1-18.32,18.87-18.32,18.94,7.82,18.94,18.53ZM216.35,31.9c-1.03-3.29-3.78-5.35-7.07-5.35s-5.83,2.06-6.93,5.35h14ZM243.12,22.43v-4.53h-11.12v35h11.12v-15.99c0-4.94,3.5-8.1,10.02-8.1v-11.46c-3.98,0-7.41,1.85-10.02,5.08ZM106.19,42.13c-1.72,0-2.68-.89-2.68-2.61v-21.62h-11.12v19.29c0,3.5-2.33,5.76-5.83,5.76-3.23,0-5.35-2.2-5.35-5.63v-19.42h-11.12v22.79c0,7.89,5.08,13.04,12.7,13.04,4.53,0,8.24-1.99,10.84-5.77,1.65,3.29,5.08,4.94,10.23,4.94h3.02s1.91,0,1.91,0v-10.77h-2.6ZM197.06,51.95s0,0,0,0c-3.57-1.89-6.35-5.17-7.87-9.19h-.81s-3.57,0-3.57,0c-2.33,0-3.57-1.17-3.57-3.36v-11.32h7.14v-10.16h-7.14v-9.06h-10.5v6.04c0,1.99-1.03,3.02-3.02,3.02h-2.61s-8.01,0-8.01,0c-.12,0-.22.1-.22.22,0,.09.05.16.12.2,0,0,.01,0,.01,0,4.02,1.67,6.08,5.03,6.69,9.73h4.16s2.25,0,2.25,0v13.18c0,7.76,4.39,11.67,13.04,11.67h1.43s12.28,0,12.28,0c.25,0,.45-.23.45-.51,0-.2-.1-.37-.25-.45ZM291.16,35.62c0,10.09-8.18,18.26-18.26,18.26s-18.26-8.17-18.26-18.26,8.18-18.26,18.26-18.26,18.26,8.17,18.26,18.26ZM280.51,35.62c0-4.2-3.41-7.61-7.61-7.61s-7.61,3.41-7.61,7.61,3.41,7.61,7.61,7.61,7.61-3.41,7.61-7.61Z"></path></g></g></svg>