<svg xmlns="http://www.w3.org/2000/svg" viewBox="0 0 152.39 52.78"><defs><style>.cls-1{fill:#ff0093;}</style></defs><g id="Capa_2" data-name="Capa 2"><g id="Capa_1-2" data-name="Capa 1"><path class="cls-1" d="M26.43,25.24V8.18H17.78l-.1.3a13.25,13.25,0,0,0-4.15-.65,13.53,13.53,0,1,0,0,27.06,13.9,13.9,0,0,0,2.67-.27l.21-.58L17.18,32l.13-.43.15.43.84,2.31h8.17l2.9-8-2.83-1Zm-12.9.87a4.76,4.76,0,1,1,4.75-4.76,4.76,4.76,0,0,1-4.75,4.76M44,7.84a12.88,12.88,0,0,0-2.65.28l-.12.3-.6,1.63-.15.42,0,.06-.12.36-.14-.42-.84-2.29H31.28l-2.87,7.89,2.8,1,.11,0V34.28H40V20.71c0-2.54,1.45-4.61,4-4.61a4.59,4.59,0,0,1,2.61.81l2.86-7.85A12.85,12.85,0,0,0,44,7.84m94.86,0a13.53,13.53,0,1,0,13.53,13.52A13.52,13.52,0,0,0,138.86,7.83m0,18.28a4.76,4.76,0,1,1,4.75-4.76,4.76,4.76,0,0,1-4.75,4.76M122,25.24V0h-7.25l-2.56,7.07.46,1.23a13.53,13.53,0,1,0-3.56,26.59,13.9,13.9,0,0,0,2.67-.27L112,34l.76-2.07.14-.43L113,32l.84,2.31h8.17l2.9-8-2.83-1Zm-12.91.87a4.76,4.76,0,1,1,4.75-4.76,4.75,4.75,0,0,1-4.75,4.76M81.21,7.83A13.53,13.53,0,1,0,93.5,27l-8.24-3A4.85,4.85,0,0,1,78,25L78,25,94.54,19A13.52,13.52,0,0,0,81.21,7.83M76.07,19c0-.12,0-.24,0-.36a4.16,4.16,0,0,1,7.6-2.36ZM64.31,7.84a12.88,12.88,0,0,0-2.65.28l-.11.3-.61,1.63-.15.42,0,.06-.12.36-.15-.42-.83-2.29H51.59l-2.87,7.89,2.8,1,.11,0V34.28h8.68V20.71c0-2.54,1.45-4.61,4-4.61a4.59,4.59,0,0,1,2.61.81l2.86-7.85a12.85,12.85,0,0,0-5.47-1.22"/><path class="cls-1" d="M43.14,42.76a1.37,1.37,0,0,0-.31-.11,2.09,2.09,0,0,0-.41-.09,3.33,3.33,0,0,0-1.5.09,3.68,3.68,0,0,0-.87.35,5.47,5.47,0,0,0-.74.52l0,0V42.7h-3v1.43h1.51v4.21H36.25v1.44h4.69V48.34H39.29v-3c.11-.13.23-.28.38-.43a2.9,2.9,0,0,1,.56-.47,3,3,0,0,1,.69-.35,2.36,2.36,0,0,1,1.38-.06,2.58,2.58,0,0,1,.39.16l.34.17.57-1.46-.34-.11-.12-.05"/><path class="cls-1" d="M33.9,47.45a1.85,1.85,0,0,1-.25.37,1.76,1.76,0,0,1-.44.34,2.85,2.85,0,0,1-.72.27,4.68,4.68,0,0,1-2.26-.06,2.53,2.53,0,0,1-.88-.46,1.87,1.87,0,0,1-.53-.71,2.55,2.55,0,0,1,0-1.93,2.06,2.06,0,0,1,.54-.7,2.55,2.55,0,0,1,.9-.46A4.31,4.31,0,0,1,32.37,44a3.75,3.75,0,0,1,.8.26,1.8,1.8,0,0,1,.55.41.75.75,0,0,1,.18.5v.65h1.41V42.66H33.9v.4a3.17,3.17,0,0,0-.65-.27,4.81,4.81,0,0,0-.83-.2,6.24,6.24,0,0,0-2.64.16,4.3,4.3,0,0,0-1.4.71,3.67,3.67,0,0,0-1,1.18,3.63,3.63,0,0,0-.35,1.61,3.57,3.57,0,0,0,.34,1.59A3.22,3.22,0,0,0,28.34,49a4.15,4.15,0,0,0,1.39.71,6.11,6.11,0,0,0,1.69.23,5.24,5.24,0,0,0,2.51-.55,3.18,3.18,0,0,0,1.46-1.69l.18-.47H34Z"/><path class="cls-1" d="M70,42.81l-.12-.05a1.37,1.37,0,0,0-.31-.11,2.15,2.15,0,0,0-.4-.09,3.37,3.37,0,0,0-1.51.09,3.61,3.61,0,0,0-.86.35,4,4,0,0,0-.74.53l0,0V42.7H63v1.43h1.52v4.21H63.26v1.44h4.4V48.34H66v-3c.11-.13.24-.28.38-.42a2.89,2.89,0,0,1,.56-.48,2.86,2.86,0,0,1,.7-.35A2.32,2.32,0,0,1,69,44.05a2.75,2.75,0,0,1,.4.16l.33.17.57-1.46Z"/><path class="cls-1" d="M50.33,47.9a3.12,3.12,0,0,1-.38.27,3.43,3.43,0,0,1-.75.26,5.12,5.12,0,0,1-2.2,0,2.39,2.39,0,0,1-.8-.39,1.66,1.66,0,0,1-.51-.58,2,2,0,0,1-.16-.43h6.72V46.5A4.68,4.68,0,0,0,52,44.87a3.49,3.49,0,0,0-.82-1.25,3.7,3.7,0,0,0-1.31-.8,5.54,5.54,0,0,0-3.37,0,4,4,0,0,0-1.34.76,3.35,3.35,0,0,0-.89,1.18,3.48,3.48,0,0,0-.33,1.51,3.8,3.8,0,0,0,.31,1.53A3.26,3.26,0,0,0,45.09,49a3.69,3.69,0,0,0,1.34.73,5.37,5.37,0,0,0,1.7.25,5.31,5.31,0,0,0,2.5-.54,3.11,3.11,0,0,0,1.42-1.51ZM45.7,45.21a1.88,1.88,0,0,1,.51-.62,2.61,2.61,0,0,1,.81-.44,4.05,4.05,0,0,1,2.29,0,2.27,2.27,0,0,1,.77.43,1.76,1.76,0,0,1,.43.6,1.87,1.87,0,0,1,.13.4H45.55a2.39,2.39,0,0,1,.15-.37"/><path class="cls-1" d="M62.37,49.78V48.34H61V45.06a2.36,2.36,0,0,0-.29-1.19,2.19,2.19,0,0,0-.8-.8,3.43,3.43,0,0,0-1.14-.43,7.33,7.33,0,0,0-1.37-.13,5.28,5.28,0,0,0-2.37.46,2.2,2.2,0,0,0-1.19,1.38l-.1.34,1.51.36.09-.3a.88.88,0,0,1,.19-.34,1.09,1.09,0,0,1,.35-.25,2.18,2.18,0,0,1,.62-.18,5.6,5.6,0,0,1,1.78,0,2.17,2.17,0,0,1,.68.21,1.07,1.07,0,0,1,.4.31.6.6,0,0,1,.13.4q-1.14.06-2.13.18a10.8,10.8,0,0,0-2,.41,3.66,3.66,0,0,0-1.42.81,2.13,2.13,0,0,0-.33,2.4,2,2,0,0,0,.64.71,2.6,2.6,0,0,0,.94.41A4.77,4.77,0,0,0,56.4,50a6.4,6.4,0,0,0,1.09-.1,9.18,9.18,0,0,0,1-.23,8.4,8.4,0,0,0,.85-.31l.21-.1v.55Zm-3.25-1.84a6.51,6.51,0,0,1-.79.31,7.71,7.71,0,0,1-.89.23,3.25,3.25,0,0,1-2.17-.18.63.63,0,0,1-.35-.61.66.66,0,0,1,.18-.45,1.87,1.87,0,0,1,.76-.43,8.9,8.9,0,0,1,1.56-.34c.58-.08,1.28-.13,2.1-.17v1.42l-.4.22"/><path class="cls-1" d="M95.32,43.23a4.19,4.19,0,0,0-1.49-.7,7.19,7.19,0,0,0-3.51,0,4.42,4.42,0,0,0-1.5.7,3.46,3.46,0,0,0-1,1.26,4.27,4.27,0,0,0,0,3.52,3.27,3.27,0,0,0,1,1.24,4.07,4.07,0,0,0,1.5.7,7.15,7.15,0,0,0,3.52,0,4.19,4.19,0,0,0,1.49-.7,3.46,3.46,0,0,0,1-1.24,3.9,3.9,0,0,0,.37-1.76,3.94,3.94,0,0,0-.37-1.77,3.59,3.59,0,0,0-1-1.25M94.18,47.8a4.27,4.27,0,0,1-4.23,0,1.87,1.87,0,0,1-.63-1.55A1.92,1.92,0,0,1,90,44.68a4.27,4.27,0,0,1,4.23,0,1.92,1.92,0,0,1,.62,1.57,1.89,1.89,0,0,1-.62,1.55m22-2.74a2.54,2.54,0,0,0-.32-1.29,2.42,2.42,0,0,0-.87-.87,3.58,3.58,0,0,0-1.2-.46,7,7,0,0,0-1.42-.13,5.38,5.38,0,0,0-2.46.48,2.45,2.45,0,0,0-1.3,1.5l-.16.55,1.89.45-.07,0a3.87,3.87,0,0,0-1.5.86,2.13,2.13,0,0,0-.62,1.56,2.24,2.24,0,0,0,.25,1.08,2.27,2.27,0,0,0,.7.78,2.79,2.79,0,0,0,1,.44,5.17,5.17,0,0,0,1.22.14,6.9,6.9,0,0,0,1.13-.09c.34-.07.68-.15,1-.24s.55-.19.8-.29V50h2.92V48.14h-1Zm-5.67-.25a.61.61,0,0,1,.15-.26.78.78,0,0,1,.28-.2,2.28,2.28,0,0,1,.57-.17,5.75,5.75,0,0,1,.89-.06,4.25,4.25,0,0,1,.82.07,2.39,2.39,0,0,1,.62.19.81.81,0,0,1,.33.26.22.22,0,0,1,0,.08c-.67,0-1.31.1-1.91.16a10.49,10.49,0,0,0-1.94.4Zm3.75,2.79-.29.15a4.19,4.19,0,0,1-.75.3,7.54,7.54,0,0,1-.88.23,4.6,4.6,0,0,1-.79.08,2.55,2.55,0,0,1-1.24-.23.45.45,0,0,1-.25-.44.44.44,0,0,1,.14-.31,1.55,1.55,0,0,1,.67-.37,7.15,7.15,0,0,1,1.52-.33c.52-.07,1.15-.13,1.87-.17Zm-28.7-2.55a3.37,3.37,0,0,0-.18-1.12,2.47,2.47,0,0,0-.61-.91,2.72,2.72,0,0,0-1-.56,4.64,4.64,0,0,0-2.41-.06,5.84,5.84,0,0,0-1.05.33,7.37,7.37,0,0,0-.79.41V39.65H76.09V41.5h1.52v6.64H76.09V50h5V48.14H79.53V45.22l.38-.28a5.28,5.28,0,0,1,.71-.4,5,5,0,0,1,.82-.3A3.26,3.26,0,0,1,83,44.18a.86.86,0,0,1,.36.17.68.68,0,0,1,.21.3,1.91,1.91,0,0,1,.09.65v2.84H82.1V50h5V48.14H85.54Zm39.32-2.48-.34-.12a3.38,3.38,0,0,0-.42-.09,3.78,3.78,0,0,0-1.6.09,4,4,0,0,0-.91.37,4.53,4.53,0,0,0-.46.3v-.63h-3.45v1.85h1.52v3.8H118V50h4.79V48.14h-1.65V45.43c.09-.11.2-.23.32-.35a3.39,3.39,0,0,1,.53-.45,3,3,0,0,1,.65-.33,2.45,2.45,0,0,1,1.24-.06,2.81,2.81,0,0,1,.37.15l.53.28.72-1.87Zm-20.48.25a6.8,6.8,0,0,0-.68-.24,5.72,5.72,0,0,0-.84-.2,6,6,0,0,0-2.57.16,4,4,0,0,0-1.43.71,3.53,3.53,0,0,0-1,1.23,3.87,3.87,0,0,0-.36,1.71A4,4,0,0,0,97.87,48a3.64,3.64,0,0,0,1,1.25,3.88,3.88,0,0,0,1.36.73,5.61,5.61,0,0,0,2.59.14,5.39,5.39,0,0,0,.94-.25,5.67,5.67,0,0,0,.61-.28,1.94,1.94,0,0,1-.12.39,1.78,1.78,0,0,1-.26.37,1.91,1.91,0,0,1-.43.31,3.7,3.7,0,0,1-.73.23,7.46,7.46,0,0,1-2.11,0,5.73,5.73,0,0,1-.73-.17,4,4,0,0,1-.48-.19l-.3-.17-.5-.3-.91,1.75.5.25a7.13,7.13,0,0,0,1.54.53,8.13,8.13,0,0,0,1.9.21,6.68,6.68,0,0,0,2-.27,4,4,0,0,0,1.46-.78,3.31,3.31,0,0,0,.88-1.25,4.15,4.15,0,0,0,.27-1.52V44.34h1.51V42.49h-3.44Zm0,4.54-.34.27a4.46,4.46,0,0,1-.61.36,3.83,3.83,0,0,1-.72.27,3,3,0,0,1-.8.1,2.78,2.78,0,0,1-1.9-.56,2.06,2.06,0,0,1-.59-1.61,2,2,0,0,1,.18-.88,1.66,1.66,0,0,1,.48-.63,2.27,2.27,0,0,1,.79-.41,3.82,3.82,0,0,1,1.11-.15,4,4,0,0,1,.79.07,4.91,4.91,0,0,1,.71.2,3.75,3.75,0,0,1,.61.27l.29.17Z"/></g></g></svg>